<svg width="103" height="20" viewBox="0 0 103 20" fill="none" xmlns="http://www.w3.org/2000/svg">
<path fill-rule="evenodd" clip-rule="evenodd" d="M42.9167 11.396H38.625V19.943H35.7639V0H42.9167C46.0798 0 48.6389 2.54827 48.6389 5.69801C48.6389 8.84774 46.0798 11.396 42.9167 11.396ZM42.9167 2.849H38.625V8.54701H42.9167C44.4983 8.54701 45.7778 7.27287 45.7778 5.69801C45.7778 4.12314 44.4983 2.849 42.9167 2.849Z" fill="#002A5C"/>
<rect x="17.8818" y="17.094" width="12.875" height="2.849" fill="#002A5C"/>
<rect x="17.8818" y="8.54701" width="12.875" height="2.849" fill="#002A5C"/>
<rect x="17.8818" width="12.875" height="2.849" fill="#002A5C"/>
<path d="M62.9446 8.54701H55.7918V0H52.9307V19.943H55.7918V11.396H62.9446V19.943H65.8057V0H62.9446V8.54701Z" fill="#002A5C"/>
<path d="M0 2.849H9.44961L0 17.094V19.943H12.875V17.094H3.42539L12.875 2.849V0H0V2.849Z" fill="#002A5C"/>
<path d="M77.2499 8.38082L71.6946 0H68.2612L75.8193 11.396V19.943H78.6804V11.396L86.2385 0H82.8132L77.2499 8.38082Z" fill="#002A5C"/>
<path fill-rule="evenodd" clip-rule="evenodd" d="M97.222 11.2298L103 19.943H99.5666L93.9 11.396H91.5554V19.943H88.6943V0H95.8471C99.0102 0 101.569 2.54827 101.569 5.69801C101.569 8.3729 99.7176 10.6204 97.222 11.2298ZM95.8471 2.849H91.5554V8.54701H95.8471C97.4287 8.54701 98.7082 7.27287 98.7082 5.69801C98.7082 4.12314 97.4287 2.849 95.8471 2.849Z" fill="#002A5C"/>
</svg>
