<?xml version="1.0" encoding="UTF-8"?>
<svg width="103px" height="20px" viewBox="0 0 103 20" version="1.1" xmlns="http://www.w3.org/2000/svg" xmlns:xlink="http://www.w3.org/1999/xlink">
    <!-- Generator: Sketch 63 (92445) - https://sketch.com -->
    <title>Zephyr-Logo-Blue</title>
    <desc>Created with Sketch.</desc>
    <g id="Welcome" stroke="none" stroke-width="1" fill="none" fill-rule="evenodd">
        <g id="Homepage" transform="translate(-250.000000, -53.000000)" fill="#FFFFFF" fill-rule="nonzero">
            <g id="Zephyr-Logo-Blue" transform="translate(250.000000, 53.000000)">
                <path d="M38.625,11.3960114 L42.9166667,11.3960114 C46.079784,11.3960114 48.6388889,8.84773663 48.6388889,5.6980057 C48.6388889,2.54827477 46.079784,0 42.9166667,0 L35.7638889,0 L35.7638889,19.9430199 L38.625,19.9430199 L38.625,11.3960114 Z M38.625,2.84900285 L42.9166667,2.84900285 C44.4982253,2.84900285 45.7777778,4.12314023 45.7777778,5.6980057 C45.7777778,7.27287116 44.4982253,8.54700855 42.9166667,8.54700855 L38.625,8.54700855 L38.625,2.84900285 Z" id="Shape"></path>
                <g id="Group" transform="translate(17.881944, 0.000000)">
                    <rect id="Rectangle" x="0" y="17.0940171" width="12.875" height="2.84900285"></rect>
                    <rect id="Rectangle" x="0" y="8.54700855" width="12.875" height="2.84900285"></rect>
                    <rect id="Rectangle" x="0" y="0" width="12.875" height="2.84900285"></rect>
                </g>
                <polygon id="Path" points="62.9444444 8.54700855 55.7916667 8.54700855 55.7916667 0 52.9305556 0 52.9305556 19.9430199 55.7916667 19.9430199 55.7916667 11.3960114 62.9444444 11.3960114 62.9444444 19.9430199 65.8055556 19.9430199 65.8055556 0 62.9444444 0"></polygon>
                <polygon id="Path" points="0 2.84900285 9.4496142 2.84900285 0 17.0940171 0 19.9430199 12.875 19.9430199 12.875 17.0940171 3.4253858 17.0940171 12.875 2.84900285 12.875 0 0 0"></polygon>
                <polygon id="Path" points="77.25 8.38081671 71.6946759 0 68.2613426 0 75.8194444 11.3960114 75.8194444 19.9430199 78.6805556 19.9430199 78.6805556 11.3960114 86.2386574 0 82.8132716 0"></polygon>
                <path d="M103,19.9430199 L97.2221451,11.2298196 C99.7176698,10.6204495 101.569444,8.37290282 101.569444,5.6980057 C101.569444,2.54827477 99.0103395,0 95.8472222,0 L88.6944444,0 L88.6944444,19.9430199 L91.5555556,19.9430199 L91.5555556,11.3960114 L93.9000772,11.3960114 L99.5666667,19.9430199 L103,19.9430199 Z M91.5555556,2.84900285 L95.8472222,2.84900285 C97.4287809,2.84900285 98.7083333,4.12314023 98.7083333,5.6980057 C98.7083333,7.27287116 97.4287809,8.54700855 95.8472222,8.54700855 L91.5555556,8.54700855 L91.5555556,2.84900285 Z" id="Shape"></path>
            </g>
        </g>
    </g>
</svg>